<svg width="23" height="12" viewBox="0 0 23 12" fill="none" xmlns="http://www.w3.org/2000/svg">
<path fill-rule="evenodd" clip-rule="evenodd" d="M15.4356 0.506132C15.7083 0.194404 16.1821 0.162816 16.4939 0.435578L22.2082 5.43558C22.3709 5.57799 22.4643 5.78374 22.4643 6.00001C22.4643 6.21628 22.3709 6.42203 22.2082 6.56444L16.4939 11.5644C16.1821 11.8372 15.7083 11.8056 15.4356 11.4939C15.1628 11.1822 15.1944 10.7083 15.5061 10.4356L19.7182 6.75001H1C0.585786 6.75001 0.25 6.41422 0.25 6.00001C0.25 5.5858 0.585786 5.25001 1 5.25001H19.7182L15.5061 1.56444C15.1944 1.29168 15.1628 0.817859 15.4356 0.506132Z" fill="#1a263a"/>
</svg>
