<svg width="15" height="16" viewBox="0 0 300 287" fill="none" xmlns="http://www.w3.org/2000/svg">
  <path d="M103.552 286.682C103.511 285.909 103.434 285.134 103.434 284.36C103.428 221.441 103.429 158.525 103.429 95.609C103.429 92.858 103.432 92.855 106.186 92.855C125.993 92.854 145.8 92.854 165.607 92.855C168.17 92.855 168.183 92.871 168.183 95.473C168.187 102.686 168.185 109.899 168.185 117.111V119.069C169.429 118.345 169.808 117.181 170.452 116.268C171.826 114.32 173.348 112.5 174.89 110.691C179.043 105.822 183.773 101.584 189.175 98.161C194.248 94.948 199.751 92.721 205.545 91.057C212.058 89.188 218.699 88.603 225.375 88.646C230.11 88.677 234.874 88.683 239.606 89.532C246.717 90.807 253.577 92.8 260.065 95.942C264.912 98.287 269.297 101.338 273.465 104.788C279.055 109.415 283.428 115.009 287.104 121.149C290.66 127.087 293.281 133.446 295.227 140.138C296.604 144.871 297.494 149.683 298.541 154.47C298.963 156.399 298.909 158.421 299.206 160.401C299.59 162.964 299.714 165.585 299.717 168.18C299.76 207.073 299.766 245.964 299.776 284.858C299.776 285.466 299.704 286.075 299.665 286.682H235.07C235.066 250.999 235.075 215.319 235.04 179.639C235.036 175.761 234.505 171.893 233.835 168.095C233.029 163.537 231.684 159.1 229.488 154.946C226.72 149.704 222.96 145.492 217.564 142.914C212.409 140.45 206.918 139.7 201.247 139.933C193.986 140.232 187.387 142.495 181.822 147.108C172.892 154.516 168.209 164.089 168.206 175.811C168.2 206.718 168.193 237.626 168.184 268.537C168.182 274.585 168.161 280.634 168.147 286.683L103.552 286.682Z" fill="#fff"/>
  <path d="M3.33001 286.682C3.32601 222.938 3.32201 159.193 3.32101 95.449C3.32101 92.962 3.43401 92.855 5.98701 92.855C25.848 92.853 45.709 92.853 65.57 92.855C68.333 92.855 68.588 93.113 68.588 95.936C68.589 158.57 68.588 221.206 68.592 283.84C68.592 284.845 68.63 285.848 67.925 286.682H3.33001Z" fill="#fff"/>
  <path d="M40.955 0C44.167 0.503 47.352 1.143 50.435 2.187C55.559 3.922 59.961 6.794 63.679 10.731C67.524 14.802 70.074 19.602 71.423 24.986C72.459 29.118 72.863 33.312 72.361 37.632C71.725 43.1 69.94 48.074 66.818 52.538C63.53 57.242 59.32 60.921 54.054 63.363C49.694 65.385 45.148 66.457 40.376 67.03C36.462 67.499 32.59 67.365 28.793 66.793C23.01 65.922 17.607 63.85 12.837 60.28C7.772 56.49 4.085 51.699 1.906 45.783C1.128 43.67 0.627 41.457 0 39.29V27.969C0.086 27.767 0.219 27.573 0.253 27.361C1.093 22.125 3.203 17.444 6.422 13.252C10.59 7.825 16.054 4.262 22.491 2.09C25.47 1.085 28.533 0.469 31.631 0H40.955Z" fill="#fff"/>
</svg>
