<svg width="41" height="27" viewBox="0 0 41 27" fill="white" xmlns="http://www.w3.org/2000/svg">
  <path d="M25.6695 26.3752C25.2618 25.9755 25.0328 25.4337 25.0328 24.8688C25.0328 24.3039 25.2618 23.7621 25.6695 23.3624L33.5659 15.6315H2.17731C1.59985 15.6315 1.04605 15.4069 0.63772 15.0072C0.229395 14.6074 0 14.0652 0 13.4999C0 12.9345 0.229395 12.3923 0.63772 11.9925C1.04605 11.5928 1.59985 11.3682 2.17731 11.3682H33.5601L25.6695 3.64016C25.4673 3.44215 25.3068 3.20708 25.1974 2.94837C25.0879 2.68966 25.0316 2.41238 25.0316 2.13236C25.0316 1.56682 25.2611 1.02445 25.6695 0.624553C26.078 0.224658 26.632 0 27.2096 0C27.7873 0 28.3412 0.224658 28.7497 0.624553L40.362 11.9935C40.5643 12.1912 40.7247 12.426 40.8342 12.6845C40.9437 12.943 41 13.22 41 13.4999C41 13.7797 40.9437 14.0567 40.8342 14.3152C40.7247 14.5737 40.5643 14.8085 40.362 15.0062L28.7497 26.3752C28.5475 26.5733 28.3074 26.7304 28.0432 26.8376C27.7789 26.9448 27.4957 27 27.2096 27C26.9236 27 26.6403 26.9448 26.3761 26.8376C26.1118 26.7304 25.8717 26.5733 25.6695 26.3752Z"/>
</svg>
