<svg width="23" height="23" viewBox="0 0 19 19" fill="none" xmlns="http://www.w3.org/2000/svg">
  <path d="M7.96665 0.299988C3.74155 0.299988 0.299988 3.74155 0.299988 7.96665C0.299988 12.1918 3.74155 15.6333 7.96665 15.6333C9.80398 15.6333 11.4913 14.9809 12.8137 13.8978L17.3913 18.4754C17.4619 18.549 17.5465 18.6077 17.6402 18.6482C17.7338 18.6886 17.8346 18.71 17.9366 18.7111C18.0386 18.7121 18.1397 18.6928 18.2342 18.6542C18.3286 18.6157 18.4144 18.5587 18.4865 18.4865C18.5587 18.4144 18.6157 18.3286 18.6542 18.2342C18.6928 18.1397 18.7121 18.0386 18.7111 17.9366C18.71 17.8346 18.6886 17.7338 18.6482 17.6402C18.6077 17.5465 18.549 17.4619 18.4754 17.3913L13.8978 12.8137C14.9809 11.4913 15.6333 9.80398 15.6333 7.96665C15.6333 3.74155 12.1918 0.299988 7.96665 0.299988ZM7.96665 1.83332C11.3631 1.83332 14.1 4.57023 14.1 7.96665C14.1 11.3631 11.3631 14.1 7.96665 14.1C4.57023 14.1 1.83332 11.3631 1.83332 7.96665C1.83332 4.57023 4.57023 1.83332 7.96665 1.83332Z" fill="#1a263a"/>
</svg>
