<svg width="24" height="24" viewBox="0 0 24 24" fill="none" xmlns="http://www.w3.org/2000/svg">
<path fill-rule="evenodd" clip-rule="evenodd" d="M5.75801 1.4446C6.86511 0.986025 8.05169 0.75 9.25 0.75C10.4483 0.75 11.6349 0.986025 12.742 1.4446C13.8491 1.90317 14.855 2.57532 15.7023 3.42265C16.5497 4.26998 17.2218 5.27592 17.6804 6.38301C18.139 7.49011 18.375 8.67669 18.375 9.875C18.375 11.0733 18.139 12.2599 17.6804 13.367C17.3822 14.0869 16.9937 14.7641 16.5254 15.3826L22.8839 21.7411C23.372 22.2293 23.372 23.0207 22.8839 23.5089C22.3957 23.997 21.6043 23.997 21.1161 23.5089L14.7576 17.1504C14.1391 17.6187 13.4619 18.0072 12.742 18.3054C11.6349 18.764 10.4483 19 9.25 19C8.05169 19 6.86511 18.764 5.75801 18.3054C4.65092 17.8468 3.64498 17.1747 2.79765 16.3273C1.95032 15.48 1.27817 14.4741 0.819599 13.367C0.361025 12.2599 0.125 11.0733 0.125 9.875C0.125 8.67669 0.361025 7.49011 0.819599 6.38301C1.27817 5.27592 1.95032 4.26999 2.79765 3.42265C3.64499 2.57532 4.65092 1.90317 5.75801 1.4446ZM9.25 3.25C8.37999 3.25 7.5185 3.42136 6.71472 3.7543C5.91094 4.08724 5.18061 4.57523 4.56542 5.19042C3.95023 5.80561 3.46224 6.53594 3.1293 7.33972C2.79636 8.1435 2.625 9.00499 2.625 9.875C2.625 10.745 2.79636 11.6065 3.1293 12.4103C3.46224 13.2141 3.95023 13.9444 4.56542 14.5596C5.18061 15.1748 5.91094 15.6628 6.71472 15.9957C7.5185 16.3286 8.37999 16.5 9.25 16.5C10.12 16.5 10.9815 16.3286 11.7853 15.9957C12.5891 15.6628 13.3194 15.1748 13.9346 14.5596C14.5498 13.9444 15.0378 13.2141 15.3707 12.4103C15.7036 11.6065 15.875 10.745 15.875 9.875C15.875 9.00499 15.7036 8.1435 15.3707 7.33972C15.0378 6.53594 14.5498 5.80561 13.9346 5.19042C13.3194 4.57523 12.5891 4.08723 11.7853 3.7543C10.9815 3.42136 10.12 3.25 9.25 3.25Z" fill="#1a263a"/>
</svg>
